<?xml version="1.0" encoding="UTF-8"?>
<!DOCTYPE svg PUBLIC "-//W3C//DTD SVG 1.1//EN" "http://www.w3.org/Graphics/SVG/1.1/DTD/svg11.dtd">
<svg xmlns="http://www.w3.org/2000/svg" version="1.1" width="363px" height="95px" style="shape-rendering:geometricPrecision; text-rendering:geometricPrecision; image-rendering:optimizeQuality; fill-rule:evenodd; clip-rule:evenodd" xmlns:xlink="http://www.w3.org/1999/xlink">
<g><path style="opacity:0.018" fill="#fafafa" d="M 328.5,27.5 C 328.833,24.8333 329.167,22.1667 329.5,19.5C 325.894,19.2108 322.394,19.5442 319,20.5C 315.126,43.1815 313.626,42.8481 314.5,19.5C 311.167,19.5 307.833,19.5 304.5,19.5C 304.167,19.5 303.833,19.5 303.5,19.5C 305.29,18.0027 307.456,17.336 310,17.5C 316.813,17.4742 323.647,17.8075 330.5,18.5C 330.932,21.8774 330.265,24.8774 328.5,27.5 Z"/></g>
<g><path style="opacity:0.044" fill="#fafafa" d="M 63.5,19.5 C 57.5,19.5 51.5,19.5 45.5,19.5C 45.5,36.8333 45.5,54.1667 45.5,71.5C 48.8333,71.5 52.1667,71.5 55.5,71.5C 55.3893,72.1174 55.056,72.6174 54.5,73C 51.2397,73.7835 48.0731,73.6168 45,72.5C 44.6667,56.1667 44.3333,39.8333 44,23.5C 42.5783,31.8932 41.0783,40.2266 39.5,48.5C 40.6074,38.8662 41.274,29.1995 41.5,19.5C 38.1667,19.5 34.8333,19.5 31.5,19.5C 31.2016,29.2129 30.3682,38.8795 29,48.5C 28.0116,38.839 27.1783,29.1723 26.5,19.5C 23.1667,19.5 19.8333,19.5 16.5,19.5C 15.55,28.1329 14.8833,36.7995 14.5,45.5C 13.8333,45.1667 13.1667,44.8333 12.5,44.5C 12.5,41.1667 12.5,37.8333 12.5,34.5C 11.5184,31.0381 11.185,27.3714 11.5,23.5C 13.1327,21.7047 14.966,20.0381 17,18.5C 18.9579,17.9488 20.9579,17.6155 23,17.5C 32.8047,17.6341 42.638,17.6341 52.5,17.5C 56.3499,17.9318 60.0165,18.5984 63.5,19.5 Z M 29.5,22.5 C 30.5735,23.2506 30.7401,24.2506 30,25.5C 28.2716,24.6477 28.105,23.6477 29.5,22.5 Z M 12.5,34.5 C 12.2308,32.5714 12.7308,30.9047 14,29.5C 14.1667,30.3333 14.3333,31.1667 14.5,32C 14.3158,33.3756 13.6491,34.2089 12.5,34.5 Z"/></g>
<g><path style="opacity:0.035" fill="#fbfbfb" d="M 176.5,19.5 C 170.167,19.5 163.833,19.5 157.5,19.5C 157.5,36.8333 157.5,54.1667 157.5,71.5C 163.833,71.5 170.167,71.5 176.5,71.5C 176.082,72.2216 175.416,72.7216 174.5,73C 168.584,73.8072 162.75,73.6406 157,72.5C 156.667,56.8333 156.333,41.1667 156,25.5C 155.066,26.8584 154.232,28.1917 153.5,29.5C 153.5,26.1667 153.5,22.8333 153.5,19.5C 146.5,19.5 139.5,19.5 132.5,19.5C 132.5,36.8333 132.5,54.1667 132.5,71.5C 139.313,72.4912 146.313,72.8245 153.5,72.5C 146.352,73.4916 139.019,73.825 131.5,73.5C 131.667,58.163 131.5,42.8297 131,27.5C 129.239,34.5035 127.739,41.5035 126.5,48.5C 127.281,38.8072 128.281,29.1406 129.5,19.5C 125.833,19.5 122.167,19.5 118.5,19.5C 118.202,29.2129 117.368,38.8795 116,48.5C 115.012,38.839 114.178,29.1723 113.5,19.5C 110.167,19.5 106.833,19.5 103.5,19.5C 102.613,28.1463 101.946,36.813 101.5,45.5C 100.833,45.1667 100.167,44.8333 99.5,44.5C 99.1268,36.1413 98.4601,27.808 97.5,19.5C 94.1667,19.5 90.8333,19.5 87.5,19.5C 92.1972,17.0679 97.0306,17.0679 102,19.5C 106.009,17.2904 110.176,16.9571 114.5,18.5C 115.503,38.4839 116.503,38.4839 117.5,18.5C 120.193,18.4285 122.86,18.0951 125.5,17.5C 127.593,17.4858 129.426,18.1524 131,19.5C 137.333,18.8333 143.667,18.1667 150,17.5C 151.785,18.2401 153.618,18.9067 155.5,19.5C 162.482,17.5574 169.482,17.5574 176.5,19.5 Z"/></g>
<g><path style="opacity:0.043" fill="#fafafa" d="M 215.5,19.5 C 213.836,59.4867 212.169,59.4867 210.5,19.5C 207.167,19.5 203.833,19.5 200.5,19.5C 200.5,22.1667 200.5,24.8333 200.5,27.5C 197.689,17.4498 201.355,14.6165 211.5,19C 212.282,21.7405 212.782,24.5738 213,27.5C 213.943,24.7493 214.776,22.0826 215.5,19.5 Z"/></g>
<g><path style="opacity:0.032" fill="#fbfbfb" d="M 239.5,46.5 C 240.057,37.4907 240.724,28.4907 241.5,19.5C 238.167,19.5 234.833,19.5 231.5,19.5C 230.319,28.7933 229.653,38.1267 229.5,47.5C 228.833,45.1667 228.167,42.8333 227.5,40.5C 226.911,33.515 226.578,26.515 226.5,19.5C 222.833,19.5 219.167,19.5 215.5,19.5C 218.519,17.6629 221.852,17.1629 225.5,18C 227.333,18.5 228.5,19.6667 229,21.5C 229.976,19.1128 231.809,17.9461 234.5,18C 237.192,17.5702 239.859,17.7369 242.5,18.5C 243.057,28.1584 242.057,37.4917 239.5,46.5 Z"/></g>
<g><path style="opacity:0.698" fill="#eeeded" d="M 265.5,20.5 C 259.08,18.6423 253.08,19.309 247.5,22.5C 249.982,18.9821 253.482,17.3155 258,17.5C 261.044,17.452 263.544,18.452 265.5,20.5 Z"/></g>
<g><path style="opacity:0.23" fill="#f7f7f7" d="M 300.5,25.5 C 299.023,23.193 297.023,21.3597 294.5,20C 288.175,19.5005 281.842,19.3338 275.5,19.5C 275.167,19.5 274.833,19.5 274.5,19.5C 275.261,18.6091 276.261,17.9424 277.5,17.5C 283.449,18.2918 289.449,18.7918 295.5,19C 298.534,20.1912 300.201,22.3579 300.5,25.5 Z"/></g>
<g><path style="opacity:0.678" fill="#edecec" d="M 350.5,19.5 C 346.5,19.5 342.5,19.5 338.5,19.5C 342.47,16.9206 346.47,16.9206 350.5,19.5 Z"/></g>
<g><path style="opacity:0.974" fill="#d2cfcf" d="M 11.5,23.5 C 11.185,27.3714 11.5184,31.0381 12.5,34.5C 12.5,37.8333 12.5,41.1667 12.5,44.5C 13.1023,51.4833 13.769,51.8167 14.5,45.5C 14.8833,36.7995 15.55,28.1329 16.5,19.5C 19.8333,19.5 23.1667,19.5 26.5,19.5C 27.1783,29.1723 28.0116,38.839 29,48.5C 30.3682,38.8795 31.2016,29.2129 31.5,19.5C 34.8333,19.5 38.1667,19.5 41.5,19.5C 41.274,29.1995 40.6074,38.8662 39.5,48.5C 39.0955,54.5467 38.4289,60.5467 37.5,66.5C 36.5489,67.9187 36.2155,69.5853 36.5,71.5C 32.1667,71.5 27.8333,71.5 23.5,71.5C 23.8064,68.6146 23.4731,65.9479 22.5,63.5C 22.5,62.8333 22.5,62.1667 22.5,61.5C 22.5,59.5 22.5,57.5 22.5,55.5C 22.3215,52.7835 21.8215,50.1168 21,47.5C 20.5065,49.1341 20.3398,50.8008 20.5,52.5C 20.1667,57.8333 19.8333,63.1667 19.5,68.5C 18.596,69.209 18.2627,70.209 18.5,71.5C 14.1667,71.5 9.83333,71.5 5.5,71.5C 5.5,71.1667 5.5,70.8333 5.5,70.5C 3.94617,54.5207 2.61283,38.5207 1.5,22.5C 3.82575,21.0477 6.32575,19.7143 9,18.5C 10.876,19.619 11.7093,21.2856 11.5,23.5 Z M 29.5,22.5 C 28.105,23.6477 28.2716,24.6477 30,25.5C 30.7401,24.2506 30.5735,23.2506 29.5,22.5 Z M 12.5,34.5 C 13.6491,34.2089 14.3158,33.3756 14.5,32C 14.3333,31.1667 14.1667,30.3333 14,29.5C 12.7308,30.9047 12.2308,32.5714 12.5,34.5 Z"/></g>
<g><path style="opacity:0.969" fill="#d1cece" d="M 63.5,19.5 C 67.8403,20.788 70.3403,23.788 71,28.5C 72.0607,34.7243 71.3941,40.7243 69,46.5C 67.549,48.4641 65.7157,49.7974 63.5,50.5C 60.8333,50.5 58.1667,50.5 55.5,50.5C 55.5,56.8333 55.5,63.1667 55.5,69.5C 55.5,70.1667 55.5,70.8333 55.5,71.5C 52.1667,71.5 48.8333,71.5 45.5,71.5C 45.5,54.1667 45.5,36.8333 45.5,19.5C 51.5,19.5 57.5,19.5 63.5,19.5 Z M 58.5,29.5 C 58.8333,30.1667 59.1667,30.8333 59.5,31.5C 59.8919,34.7216 59.3919,37.7216 58,40.5C 57.7679,39.2625 57.2679,38.2625 56.5,37.5C 56.3367,35.1432 56.5034,32.8098 57,30.5C 57.3826,29.944 57.8826,29.6107 58.5,29.5 Z"/></g>
<g><path style="opacity:0.987" fill="#d3d0d0" d="M 87.5,19.5 C 90.8333,19.5 94.1667,19.5 97.5,19.5C 98.4601,27.808 99.1268,36.1413 99.5,44.5C 100.102,51.4833 100.769,51.8167 101.5,45.5C 101.946,36.813 102.613,28.1463 103.5,19.5C 106.833,19.5 110.167,19.5 113.5,19.5C 114.178,29.1723 115.012,38.839 116,48.5C 117.368,38.8795 118.202,29.2129 118.5,19.5C 122.167,19.5 125.833,19.5 129.5,19.5C 128.281,29.1406 127.281,38.8072 126.5,48.5C 126.13,54.5787 125.463,60.5787 124.5,66.5C 123.549,67.9187 123.216,69.5853 123.5,71.5C 119.167,71.5 114.833,71.5 110.5,71.5C 110.806,68.6146 110.473,65.9479 109.5,63.5C 109.5,63.1667 109.5,62.8333 109.5,62.5C 109.5,60.1667 109.5,57.8333 109.5,55.5C 109.322,52.7835 108.822,50.1168 108,47.5C 107.506,49.1341 107.34,50.8008 107.5,52.5C 107.331,57.1811 106.998,61.8478 106.5,66.5C 106.5,67.1667 106.5,67.8333 106.5,68.5C 105.596,69.209 105.263,70.209 105.5,71.5C 101.167,71.5 96.8333,71.5 92.5,71.5C 89.8885,54.06 88.2219,36.7266 87.5,19.5 Z"/></g>
<g><path style="opacity:0.983" fill="#d1cece" d="M 153.5,29.5 C 153.167,29.5 152.833,29.5 152.5,29.5C 149.5,29.5 146.5,29.5 143.5,29.5C 143.5,32.8333 143.5,36.1667 143.5,39.5C 146.287,40.4767 149.287,40.81 152.5,40.5C 152.5,43.5 152.5,46.5 152.5,49.5C 149.5,49.5 146.5,49.5 143.5,49.5C 143.5,53.5 143.5,57.5 143.5,61.5C 146.625,62.4794 149.958,62.8128 153.5,62.5C 153.5,65.5 153.5,68.5 153.5,71.5C 146.5,71.5 139.5,71.5 132.5,71.5C 132.5,54.1667 132.5,36.8333 132.5,19.5C 139.5,19.5 146.5,19.5 153.5,19.5C 153.5,22.8333 153.5,26.1667 153.5,29.5 Z"/></g>
<g><path style="opacity:0.992" fill="#d2cfcf" d="M 176.5,19.5 C 180.079,19.9106 182.246,21.9106 183,25.5C 183.667,29.5 183.667,33.5 183,37.5C 182.768,38.7375 182.268,39.7375 181.5,40.5C 177.5,41.8333 177.5,43.1667 181.5,44.5C 182.338,44.8417 182.672,45.5084 182.5,46.5C 183.2,50.7978 183.533,55.1311 183.5,59.5C 184.114,65.4072 181.781,69.4072 176.5,71.5C 170.167,71.5 163.833,71.5 157.5,71.5C 157.5,54.1667 157.5,36.8333 157.5,19.5C 163.833,19.5 170.167,19.5 176.5,19.5 Z M 169.5,29.5 C 170.748,30.3339 171.415,31.6672 171.5,33.5C 171.167,34.8333 170.833,36.1667 170.5,37.5C 169.52,34.9135 169.187,32.2469 169.5,29.5 Z M 172.5,51.5 C 171.949,54.8067 171.616,58.1401 171.5,61.5C 170.206,59.9522 169.539,57.9522 169.5,55.5C 169.833,53.5 170.167,51.5 170.5,49.5C 171.182,50.2427 171.849,50.9094 172.5,51.5 Z"/></g>
<g><path style="opacity:0.987" fill="#d2cfcf" d="M 215.5,19.5 C 219.167,19.5 222.833,19.5 226.5,19.5C 226.578,26.515 226.911,33.515 227.5,40.5C 227.184,43.9783 227.684,47.3117 229,50.5C 229.483,49.552 229.649,48.552 229.5,47.5C 229.653,38.1267 230.319,28.7933 231.5,19.5C 234.833,19.5 238.167,19.5 241.5,19.5C 240.724,28.4907 240.057,37.4907 239.5,46.5C 238.96,54.9051 237.96,63.2384 236.5,71.5C 232.167,71.5 227.833,71.5 223.5,71.5C 221.831,42.1806 220.164,42.1806 218.5,71.5C 214.167,71.5 209.833,71.5 205.5,71.5C 204.539,69.7354 204.205,67.7354 204.5,65.5C 204.468,56.5845 203.468,47.9178 201.5,39.5C 200.728,35.5483 200.395,31.5483 200.5,27.5C 200.5,24.8333 200.5,22.1667 200.5,19.5C 203.833,19.5 207.167,19.5 210.5,19.5C 212.169,59.4867 213.836,59.4867 215.5,19.5 Z"/></g>
<g><path style="opacity:0.992" fill="#d2cfcf" d="M 265.5,20.5 C 267.196,22.5248 268.863,24.5248 270.5,26.5C 270.5,38.5 270.5,50.5 270.5,62.5C 270.598,64.5529 269.931,66.2196 268.5,67.5C 267.167,68.1667 266.167,69.1667 265.5,70.5C 263.668,72.8942 261.168,73.8942 258,73.5C 255.456,73.664 253.29,72.9973 251.5,71.5C 251.027,70.0937 250.027,69.427 248.5,69.5C 245.242,66.6305 243.909,62.9639 244.5,58.5C 244.26,47.4687 244.593,36.4687 245.5,25.5C 246.906,25.0269 247.573,24.0269 247.5,22.5C 253.08,19.309 259.08,18.6423 265.5,20.5 Z M 259.5,60.5 C 258.85,60.8039 258.183,61.1373 257.5,61.5C 257.167,56.5 256.833,51.5 256.5,46.5C 256.355,40.9977 256.855,35.6644 258,30.5C 259.395,40.4343 259.895,50.4343 259.5,60.5 Z"/></g>
<g><path style="opacity:0.584" fill="#ecebeb" d="M 274.5,19.5 C 274.833,19.5 275.167,19.5 275.5,19.5C 275.5,36.8333 275.5,54.1667 275.5,71.5C 278.833,71.5 282.167,71.5 285.5,71.5C 285.5,71.8333 285.5,72.1667 285.5,72.5C 281.833,72.5 278.167,72.5 274.5,72.5C 273.253,54.7756 273.253,37.1089 274.5,19.5 Z"/></g>
<g><path style="opacity:0.991" fill="#d1cece" d="M 275.5,19.5 C 281.842,19.3338 288.175,19.5005 294.5,20C 297.023,21.3597 299.023,23.193 300.5,25.5C 300.5,25.8333 300.5,26.1667 300.5,26.5C 300.666,30.5138 300.499,34.5138 300,38.5C 299.604,40.9602 298.437,42.9602 296.5,44.5C 297.357,45.4252 298.357,46.0919 299.5,46.5C 299.5,54.8333 299.5,63.1667 299.5,71.5C 296.167,71.5 292.833,71.5 289.5,71.5C 289.831,63.8045 289.497,56.1378 288.5,48.5C 287.833,48.1667 287.167,47.8333 286.5,47.5C 285.502,55.4723 285.169,63.4723 285.5,71.5C 282.167,71.5 278.833,71.5 275.5,71.5C 275.5,54.1667 275.5,36.8333 275.5,19.5 Z M 286.5,30.5 C 288.484,30.484 289.484,31.484 289.5,33.5C 289.547,35.0004 288.881,36.0004 287.5,36.5C 286.534,34.604 286.201,32.604 286.5,30.5 Z"/></g>
<g><path style="opacity:0.288" fill="#f4f3f3" d="M 303.5,19.5 C 303.833,19.5 304.167,19.5 304.5,19.5C 304.5,36.8333 304.5,54.1667 304.5,71.5C 307.833,71.5 311.167,71.5 314.5,71.5C 314.334,63.4931 314.5,55.4931 315,47.5C 315.943,51.4964 316.776,55.4964 317.5,59.5C 316.883,59.6107 316.383,59.944 316,60.5C 315.8,64.7533 315.3,68.92 314.5,73C 310.909,73.7886 307.409,73.6219 304,72.5C 303.639,69.4748 303.139,66.4748 302.5,63.5C 303.199,48.8102 303.532,34.1435 303.5,19.5 Z"/></g>
<g><path style="opacity:0.983" fill="#d2cfcf" d="M 304.5,19.5 C 307.833,19.5 311.167,19.5 314.5,19.5C 313.626,42.8481 315.126,43.1815 319,20.5C 322.394,19.5442 325.894,19.2108 329.5,19.5C 329.167,22.1667 328.833,24.8333 328.5,27.5C 327.232,29.9052 326.565,32.5718 326.5,35.5C 325.167,40.8333 325.167,46.1667 326.5,51.5C 326.259,53.8984 326.926,55.8984 328.5,57.5C 328.5,58.1667 328.5,58.8333 328.5,59.5C 328.565,62.4282 329.232,65.0948 330.5,67.5C 330.5,68.8333 330.5,70.1667 330.5,71.5C 326.498,71.9643 322.831,71.2976 319.5,69.5C 318.207,66.3209 317.54,62.9876 317.5,59.5C 316.776,55.4964 315.943,51.4964 315,47.5C 314.5,55.4931 314.334,63.4931 314.5,71.5C 311.167,71.5 307.833,71.5 304.5,71.5C 304.5,54.1667 304.5,36.8333 304.5,19.5 Z"/></g>
<g><path style="opacity:0.991" fill="#d3d0d0" d="M 338.5,19.5 C 342.5,19.5 346.5,19.5 350.5,19.5C 353.5,20.5 355.5,22.5 356.5,25.5C 356.963,28.4824 357.296,31.4824 357.5,34.5C 353.936,35.4227 350.269,35.756 346.5,35.5C 346.5,34.8333 346.5,34.1667 346.5,33.5C 347.244,30.0504 345.91,28.3838 342.5,28.5C 342.216,30.4147 342.549,32.0813 343.5,33.5C 344.338,33.8417 344.672,34.5084 344.5,35.5C 347.5,39.1667 350.833,42.5 354.5,45.5C 355.11,47.4341 356.11,49.1007 357.5,50.5C 357.5,54.8333 357.5,59.1667 357.5,63.5C 357.365,67.6271 355.365,70.2938 351.5,71.5C 347.881,72.2436 344.215,72.577 340.5,72.5C 339.508,72.6716 338.842,72.3382 338.5,71.5C 338.027,70.0937 337.027,69.427 335.5,69.5C 333.461,68.089 332.461,66.089 332.5,63.5C 332.5,59.8333 332.5,56.1667 332.5,52.5C 335.833,52.5 339.167,52.5 342.5,52.5C 342.19,55.7131 342.523,58.7131 343.5,61.5C 344.5,61.5 345.5,61.5 346.5,61.5C 347.152,60.5514 347.486,59.3847 347.5,58C 347.693,55.9919 347.026,54.4919 345.5,53.5C 343.234,49.5644 340.234,46.2311 336.5,43.5C 334.292,42.1064 332.792,40.1064 332,37.5C 331.238,33.4126 331.404,29.4126 332.5,25.5C 333.906,25.0269 334.573,24.0269 334.5,22.5C 335.5,22.1667 336.167,21.5 336.5,20.5C 336.842,19.6618 337.508,19.3284 338.5,19.5 Z M 346.5,33.5 C 346.5,34.1667 346.5,34.8333 346.5,35.5C 345.833,35.5 345.167,35.5 344.5,35.5C 344.672,34.5084 344.338,33.8417 343.5,33.5C 344.525,29.5822 345.525,29.5822 346.5,33.5 Z M 345.5,53.5 C 346.265,56.0961 346.599,58.7628 346.5,61.5C 345.5,61.5 344.5,61.5 343.5,61.5C 342.964,58.3019 343.631,55.6353 345.5,53.5 Z"/></g>
<g><path style="opacity:0.149" fill="#fafafa" d="M 336.5,20.5 C 336.167,21.5 335.5,22.1667 334.5,22.5C 334.5,21.1667 335.167,20.5 336.5,20.5 Z"/></g>
<g><path style="opacity:0.01" fill="#f9f9f9" d="M 265.5,20.5 C 268.621,21.2876 270.288,23.2876 270.5,26.5C 268.863,24.5248 267.196,22.5248 265.5,20.5 Z"/></g>
<g><path style="opacity:0.451" fill="#f2f2f2" d="M 334.5,22.5 C 334.573,24.0269 333.906,25.0269 332.5,25.5C 332.427,23.9731 333.094,22.9731 334.5,22.5 Z"/></g>
<g><path style="opacity:0.325" fill="#edecec" d="M 247.5,22.5 C 247.573,24.0269 246.906,25.0269 245.5,25.5C 245.427,23.9731 246.094,22.9731 247.5,22.5 Z"/></g>
<g><path style="opacity:0.014" fill="#fbfbfb" d="M 300.5,26.5 C 301.893,28.5112 302.56,30.8446 302.5,33.5C 301.297,37.7789 300.297,42.1122 299.5,46.5C 298.357,46.0919 297.357,45.4252 296.5,44.5C 298.437,42.9602 299.604,40.9602 300,38.5C 300.499,34.5138 300.666,30.5138 300.5,26.5 Z"/></g>
<g><path style="opacity:0.476" fill="#e7e6e6" d="M 168.5,27.5 C 168.5,31.1667 168.5,34.8333 168.5,38.5C 169.5,38.5 170.5,38.5 171.5,38.5C 170.432,39.4345 169.099,39.7678 167.5,39.5C 167.183,35.2984 167.517,31.2984 168.5,27.5 Z"/></g>
<g><path style="opacity:0.025" fill="#fdfdfd" d="M 168.5,27.5 C 169.822,27.33 170.989,27.6634 172,28.5C 172.808,32.0267 172.641,35.3601 171.5,38.5C 170.5,38.5 169.5,38.5 168.5,38.5C 168.5,34.8333 168.5,31.1667 168.5,27.5 Z M 169.5,29.5 C 169.187,32.2469 169.52,34.9135 170.5,37.5C 170.833,36.1667 171.167,34.8333 171.5,33.5C 171.415,31.6672 170.748,30.3339 169.5,29.5 Z"/></g>
<g><path style="opacity:0.022" fill="#fdfdfd" d="M 245.5,25.5 C 244.593,36.4687 244.26,47.4687 244.5,58.5C 243.341,48.3416 243.175,38.0083 244,27.5C 244.278,26.5842 244.778,25.9175 245.5,25.5 Z"/></g>
<g><path style="opacity:0.032" fill="#f7f7f7" d="M 259.5,60.5 C 258.817,62.1765 257.483,62.8432 255.5,62.5C 255.179,51.252 255.513,40.0854 256.5,29C 258.108,28.342 259.275,28.842 260,30.5C 260.825,40.6753 260.658,50.6753 259.5,60.5 Z M 259.5,60.5 C 259.895,50.4343 259.395,40.4343 258,30.5C 256.855,35.6644 256.355,40.9977 256.5,46.5C 256.833,51.5 257.167,56.5 257.5,61.5C 258.183,61.1373 258.85,60.8039 259.5,60.5 Z"/></g>
<g><path style="opacity:0.033" fill="#fcfcfc" d="M 346.5,33.5 C 345.525,29.5822 344.525,29.5822 343.5,33.5C 342.549,32.0813 342.216,30.4147 342.5,28.5C 345.91,28.3838 347.244,30.0504 346.5,33.5 Z"/></g>
<g><path style="opacity:0.018" fill="#f9f9f9" d="M 356.5,25.5 C 358.482,28.3726 358.815,31.3726 357.5,34.5C 357.296,31.4824 356.963,28.4824 356.5,25.5 Z"/></g>
<g><path style="opacity:0.317" fill="#eeeded" d="M 58.5,29.5 C 57.8826,29.6107 57.3826,29.944 57,30.5C 56.5034,32.8098 56.3367,35.1432 56.5,37.5C 56.5,38.8333 56.5,40.1667 56.5,41.5C 55.5151,37.3656 55.1818,33.0323 55.5,28.5C 56.791,28.2627 57.791,28.596 58.5,29.5 Z"/></g>
<g><path style="opacity:0.022" fill="#fefefe" d="M 152.5,29.5 C 150.107,30.21 147.607,30.8767 145,31.5C 144.503,33.8098 144.337,36.1432 144.5,38.5C 147.713,38.19 150.713,38.5233 153.5,39.5C 150.167,39.5 146.833,39.5 143.5,39.5C 143.5,36.1667 143.5,32.8333 143.5,29.5C 146.5,29.5 149.5,29.5 152.5,29.5 Z"/></g>
<g><path style="opacity:0.27" fill="#f7f7f7" d="M 285.5,29.5 C 287.167,29.5 288.833,29.5 290.5,29.5C 290.664,32.1873 290.497,34.854 290,37.5C 288.644,38.3802 287.144,38.7135 285.5,38.5C 285.5,35.5 285.5,32.5 285.5,29.5 Z M 286.5,30.5 C 286.201,32.604 286.534,34.604 287.5,36.5C 288.881,36.0004 289.547,35.0004 289.5,33.5C 289.484,31.484 288.484,30.484 286.5,30.5 Z"/></g>
<g><path style="opacity:0.025" fill="#f7f7f7" d="M 328.5,27.5 C 328.706,30.4951 328.04,33.1617 326.5,35.5C 326.565,32.5718 327.232,29.9052 328.5,27.5 Z"/></g>
<g><path style="opacity:0.03" fill="#fbfafa" d="M 59.5,31.5 C 60.6378,34.3035 60.8045,37.3035 60,40.5C 58.9887,41.3366 57.8221,41.67 56.5,41.5C 56.5,40.1667 56.5,38.8333 56.5,37.5C 57.2679,38.2625 57.7679,39.2625 58,40.5C 59.3919,37.7216 59.8919,34.7216 59.5,31.5 Z"/></g>
<g><path style="opacity:0.188" fill="#faf9f9" d="M 270.5,26.5 C 272.014,32.5946 272.68,38.928 272.5,45.5C 272.333,49.8333 272.167,54.1667 272,58.5C 271.79,60.0581 271.29,61.3915 270.5,62.5C 270.5,50.5 270.5,38.5 270.5,26.5 Z"/></g>
<g><path style="opacity:0.008" fill="#f7f6f6" d="M 344.5,35.5 C 345.167,35.5 345.833,35.5 346.5,35.5C 349.57,38.5638 352.237,41.8971 354.5,45.5C 350.833,42.5 347.5,39.1667 344.5,35.5 Z"/></g>
<g><path style="opacity:0.584" fill="#e7e6e6" d="M 143.5,39.5 C 146.833,39.5 150.167,39.5 153.5,39.5C 154.782,42.7307 154.782,46.0641 153.5,49.5C 153.167,49.5 152.833,49.5 152.5,49.5C 152.5,46.5 152.5,43.5 152.5,40.5C 149.287,40.81 146.287,40.4767 143.5,39.5 Z"/></g>
<g><path style="opacity:0.057" fill="#f9f8f8" d="M 181.5,40.5 C 181.5,41.8333 181.5,43.1667 181.5,44.5C 177.5,43.1667 177.5,41.8333 181.5,40.5 Z"/></g>
<g><path style="opacity:0.015" fill="#f6f5f5" d="M 201.5,39.5 C 203.468,47.9178 204.468,56.5845 204.5,65.5C 202.93,57.039 201.93,48.3723 201.5,39.5 Z"/></g>
<g><path style="opacity:0.025" fill="#fefefe" d="M 172.5,49.5 C 172.5,50.1667 172.5,50.8333 172.5,51.5C 171.849,50.9094 171.182,50.2427 170.5,49.5C 170.167,51.5 169.833,53.5 169.5,55.5C 169.539,57.9522 170.206,59.9522 171.5,61.5C 170.791,62.404 169.791,62.7373 168.5,62.5C 168.5,57.5 168.5,52.5 168.5,47.5C 170.38,47.2291 171.713,47.8958 172.5,49.5 Z"/></g>
<g><path style="opacity:0.824" fill="#e1e0e0" d="M 227.5,40.5 C 228.167,42.8333 228.833,45.1667 229.5,47.5C 229.649,48.552 229.483,49.552 229,50.5C 227.684,47.3117 227.184,43.9783 227.5,40.5 Z"/></g>
<g><path style="opacity:0.318" fill="#f2f1f1" d="M 354.5,45.5 C 356.727,46.4006 357.727,48.0672 357.5,50.5C 356.11,49.1007 355.11,47.4341 354.5,45.5 Z"/></g>
<g><path style="opacity:0.017" fill="#f7f7f7" d="M -0.5,23.5 C -0.5,23.1667 -0.5,22.8333 -0.5,22.5C 0.166667,22.5 0.833333,22.5 1.5,22.5C 2.61283,38.5207 3.94617,54.5207 5.5,70.5C 3.76177,58.4411 1.76177,46.4411 -0.5,34.5C -0.5,32.1667 -0.5,29.8333 -0.5,27.5C 0.833333,26.8333 0.833333,26.1667 -0.5,25.5C -0.5,25.1667 -0.5,24.8333 -0.5,24.5C 0.833333,24.1667 0.833333,23.8333 -0.5,23.5 Z"/></g>
<g><path style="opacity:0.757" fill="#e3e1e1" d="M 12.5,44.5 C 13.1667,44.8333 13.8333,45.1667 14.5,45.5C 13.769,51.8167 13.1023,51.4833 12.5,44.5 Z"/></g>
<g><path style="opacity:1" fill="#e3e1e1" d="M 99.5,44.5 C 100.167,44.8333 100.833,45.1667 101.5,45.5C 100.769,51.8167 100.102,51.4833 99.5,44.5 Z"/></g>
<g><path style="opacity:0.02" fill="#fcfcfc" d="M 289.5,71.5 C 292.625,72.4794 295.958,72.8128 299.5,72.5C 296.977,73.2537 294.311,73.9204 291.5,74.5C 290.833,74.1667 290.167,73.8333 289.5,73.5C 288.669,66.5236 288.169,59.5236 288,52.5C 287.055,59.2979 286.222,65.9645 285.5,72.5C 285.5,72.1667 285.5,71.8333 285.5,71.5C 285.169,63.4723 285.502,55.4723 286.5,47.5C 287.167,47.8333 287.833,48.1667 288.5,48.5C 289.497,56.1378 289.831,63.8045 289.5,71.5 Z"/></g>
<g><path style="opacity:0.013" fill="#f8f8f8" d="M 336.5,43.5 C 340.234,46.2311 343.234,49.5644 345.5,53.5C 343.631,55.6353 342.964,58.3019 343.5,61.5C 342.523,58.7131 342.19,55.7131 342.5,52.5C 339.167,52.5 335.833,52.5 332.5,52.5C 332.5,56.1667 332.5,59.8333 332.5,63.5C 330.747,60.0319 330.413,56.3653 331.5,52.5C 334.714,51.9561 337.714,50.9561 340.5,49.5C 338.722,47.736 337.389,45.736 336.5,43.5 Z"/></g>
<g><path style="opacity:0.022" fill="#f9f8f8" d="M 182.5,46.5 C 183.952,48.8476 184.618,51.5143 184.5,54.5C 184.493,56.3693 184.16,58.036 183.5,59.5C 183.533,55.1311 183.2,50.7978 182.5,46.5 Z"/></g>
<g><path style="opacity:0.42" fill="#e9e7e7" d="M 22.5,55.5 C 21.8333,54.5 21.1667,53.5 20.5,52.5C 20.3398,50.8008 20.5065,49.1341 21,47.5C 21.8215,50.1168 22.3215,52.7835 22.5,55.5 Z"/></g>
<g><path style="opacity:0.463" fill="#e9e7e7" d="M 109.5,55.5 C 108.833,54.5 108.167,53.5 107.5,52.5C 107.34,50.8008 107.506,49.1341 108,47.5C 108.822,50.1168 109.322,52.7835 109.5,55.5 Z"/></g>
<g><path style="opacity:0.012" fill="#fcfcfc" d="M 152.5,49.5 C 152.833,49.5 153.167,49.5 153.5,49.5C 150.772,50.2052 147.939,50.8719 145,51.5C 144.253,54.9236 144.42,58.2569 145.5,61.5C 144.833,61.5 144.167,61.5 143.5,61.5C 143.5,57.5 143.5,53.5 143.5,49.5C 146.5,49.5 149.5,49.5 152.5,49.5 Z"/></g>
<g><path style="opacity:0.176" fill="#edecec" d="M 63.5,50.5 C 61.2121,51.0735 59.0454,52.0735 57,53.5C 56.8267,59.0158 56.3267,64.3491 55.5,69.5C 55.5,63.1667 55.5,56.8333 55.5,50.5C 58.1667,50.5 60.8333,50.5 63.5,50.5 Z"/></g>
<g><path style="opacity:0.361" fill="#f1f0f0" d="M 172.5,49.5 C 173.643,52.9758 173.81,56.6425 173,60.5C 172.617,61.056 172.117,61.3893 171.5,61.5C 171.616,58.1401 171.949,54.8067 172.5,51.5C 172.5,50.8333 172.5,50.1667 172.5,49.5 Z"/></g>
<g><path style="opacity:0.029" fill="#f6f5f5" d="M 236.5,71.5 C 236.082,72.2216 235.416,72.7216 234.5,73C 230.833,73.6667 227.167,73.6667 223.5,73C 222.51,69.2405 221.677,65.4072 221,61.5C 220.538,65.4503 219.704,69.2836 218.5,73C 214.5,73.6667 210.5,73.6667 206.5,73C 205.944,72.6174 205.611,72.1174 205.5,71.5C 209.833,71.5 214.167,71.5 218.5,71.5C 220.164,42.1806 221.831,42.1806 223.5,71.5C 227.833,71.5 232.167,71.5 236.5,71.5 Z"/></g>
<g><path style="opacity:0.473" fill="#edecec" d="M 299.5,46.5 C 300.845,49.051 301.511,51.8844 301.5,55C 301.056,61.0085 300.39,66.8418 299.5,72.5C 295.958,72.8128 292.625,72.4794 289.5,71.5C 292.833,71.5 296.167,71.5 299.5,71.5C 299.5,63.1667 299.5,54.8333 299.5,46.5 Z"/></g>
<g><path style="opacity:0.028" fill="#fbfbfb" d="M 20.5,52.5 C 21.1667,53.5 21.8333,54.5 22.5,55.5C 22.5,57.5 22.5,59.5 22.5,61.5C 20.9174,63.5078 19.9174,65.8411 19.5,68.5C 19.8333,63.1667 20.1667,57.8333 20.5,52.5 Z"/></g>
<g><path style="opacity:0.018" fill="#fbfbfb" d="M 107.5,52.5 C 108.167,53.5 108.833,54.5 109.5,55.5C 109.5,57.8333 109.5,60.1667 109.5,62.5C 108.883,62.3893 108.383,62.056 108,61.5C 107.802,63.3817 107.302,65.0484 106.5,66.5C 106.998,61.8478 107.331,57.1811 107.5,52.5 Z"/></g>
<g><path style="opacity:0.573" fill="#f1f0f0" d="M 326.5,51.5 C 328.074,53.1016 328.741,55.1016 328.5,57.5C 326.926,55.8984 326.259,53.8984 326.5,51.5 Z"/></g>
<g><path style="opacity:0.28" fill="#f6f6f6" d="M 357.5,50.5 C 360.167,54.8333 360.167,59.1667 357.5,63.5C 357.5,59.1667 357.5,54.8333 357.5,50.5 Z"/></g>
<g><path style="opacity:0.118" fill="#f4f3f3" d="M 345.5,53.5 C 347.026,54.4919 347.693,55.9919 347.5,58C 347.486,59.3847 347.152,60.5514 346.5,61.5C 346.599,58.7628 346.265,56.0961 345.5,53.5 Z"/></g>
<g><path style="opacity:0.587" fill="#e4e2e2" d="M 143.5,61.5 C 144.167,61.5 144.833,61.5 145.5,61.5C 148.5,61.5 151.5,61.5 154.5,61.5C 154.67,63.8484 155.003,66.1817 155.5,68.5C 155.66,70.3545 154.993,71.6879 153.5,72.5C 146.313,72.8245 139.313,72.4912 132.5,71.5C 139.5,71.5 146.5,71.5 153.5,71.5C 153.5,68.5 153.5,65.5 153.5,62.5C 149.958,62.8128 146.625,62.4794 143.5,61.5 Z"/></g>
<g><path style="opacity:0.498" fill="#eeeded" d="M 328.5,59.5 C 330.04,61.8383 330.706,64.5049 330.5,67.5C 329.232,65.0948 328.565,62.4282 328.5,59.5 Z"/></g>
<g><path style="opacity:0.004" fill="#f7f6f6" d="M 268.5,67.5 C 268.5,69.5 267.5,70.5 265.5,70.5C 266.167,69.1667 267.167,68.1667 268.5,67.5 Z"/></g>
<g><path style="opacity:0.4" fill="#e9e7e7" d="M 248.5,69.5 C 250.027,69.427 251.027,70.0937 251.5,71.5C 249.973,71.573 248.973,70.9063 248.5,69.5 Z"/></g>
<g><path style="opacity:0.4" fill="#e9e7e7" d="M 335.5,69.5 C 337.027,69.427 338.027,70.0937 338.5,71.5C 336.973,71.573 335.973,70.9063 335.5,69.5 Z"/></g>
<g><path style="opacity:0.524" fill="#efeded" d="M 19.5,68.5 C 19.7135,70.1439 19.3802,71.6439 18.5,73C 14.8333,73.6667 11.1667,73.6667 7.5,73C 6.5842,72.7216 5.91753,72.2216 5.5,71.5C 9.83333,71.5 14.1667,71.5 18.5,71.5C 18.2627,70.209 18.596,69.209 19.5,68.5 Z"/></g>
<g><path style="opacity:0.482" fill="#f1f0f0" d="M 22.5,63.5 C 23.4731,65.9479 23.8064,68.6146 23.5,71.5C 27.8333,71.5 32.1667,71.5 36.5,71.5C 36.2155,69.5853 36.5489,67.9187 37.5,66.5C 37.9167,69.0792 37.25,71.2458 35.5,73C 31.5,73.6667 27.5,73.6667 23.5,73C 22.5495,69.9433 22.2161,66.7766 22.5,63.5 Z"/></g>
<g><path style="opacity:0.531" fill="#efeded" d="M 106.5,68.5 C 106.714,70.1439 106.38,71.6439 105.5,73C 101.833,73.6667 98.1667,73.6667 94.5,73C 93.5842,72.7216 92.9175,72.2216 92.5,71.5C 96.8333,71.5 101.167,71.5 105.5,71.5C 105.263,70.209 105.596,69.209 106.5,68.5 Z"/></g>
<g><path style="opacity:0.544" fill="#f2f1f1" d="M 109.5,63.5 C 110.473,65.9479 110.806,68.6146 110.5,71.5C 114.833,71.5 119.167,71.5 123.5,71.5C 123.216,69.5853 123.549,67.9187 124.5,66.5C 124.756,68.7925 124.423,70.9592 123.5,73C 119.167,73.6667 114.833,73.6667 110.5,73C 109.549,69.9433 109.216,66.7766 109.5,63.5 Z"/></g>
<g><path style="opacity:0.479" fill="#efeeee" d="M 330.5,67.5 C 331.461,69.2646 331.795,71.2646 331.5,73.5C 327.818,73.6653 324.152,73.4986 320.5,73C 319.663,71.9887 319.33,70.8221 319.5,69.5C 322.831,71.2976 326.498,71.9643 330.5,71.5C 330.5,70.1667 330.5,68.8333 330.5,67.5 Z"/></g>
<g><path style="opacity:0.012" fill="#fefffe" d="M 274.5,72.5 C 278.167,72.5 281.833,72.5 285.5,72.5C 282.64,73.2439 279.64,73.9106 276.5,74.5C 275.478,74.1445 274.811,73.4778 274.5,72.5 Z"/></g>
<g><path style="opacity:0.013" fill="#fbfafa" d="M 351.5,71.5 C 349.71,72.9973 347.544,73.664 345,73.5C 343.293,73.4915 341.793,73.1582 340.5,72.5C 344.215,72.577 347.881,72.2436 351.5,71.5 Z"/></g>
</svg>
