<?xml version="1.0" standalone="no"?>
<!DOCTYPE svg PUBLIC "-//W3C//DTD SVG 20010904//EN"
 "http://www.w3.org/TR/2001/REC-SVG-20010904/DTD/svg10.dtd">
<svg version="1.0" xmlns="http://www.w3.org/2000/svg"
 width="363.000000pt" height="95.000000pt" viewBox="0 0 363.000000 95.000000"
 preserveAspectRatio="xMidYMid meet">

<g transform="translate(0.000000,95.000000) scale(0.100000,-0.100000)"
fill="#000000" stroke="none">
<path d="M14 718 c4 -18 9 -55 12 -83 6 -80 33 -337 39 -372 6 -33 6 -33 64
-33 l58 0 6 48 c4 26 9 80 13 121 8 88 19 75 28 -34 12 -141 9 -135 77 -135
42 0 59 4 59 13 0 7 11 114 25 238 33 294 34 269 -19 269 -51 0 -51 2 -62
-170 -4 -57 -10 -116 -15 -130 l-7 -25 -2 25 c-1 14 -7 86 -13 160 l-12 135
-46 3 -46 3 -13 -155 c-7 -86 -16 -153 -20 -151 -4 3 -11 44 -14 92 -9 123
-16 164 -27 157 -5 -3 -9 2 -9 10 0 9 5 16 10 16 6 0 10 6 10 13 0 9 -17 14
-51 16 l-52 2 7 -33z"/>
<path d="M460 490 l0 -260 50 0 50 0 0 105 0 105 41 0 c53 0 78 14 95 55 20
48 18 152 -4 195 -24 48 -53 60 -149 60 l-83 0 0 -260z m152 135 c14 -52 -9
-105 -46 -105 -3 0 -6 32 -6 71 0 67 1 70 22 67 14 -2 24 -13 30 -33z"/>
<path d="M885 723 c3 -16 14 -118 25 -228 30 -294 20 -265 89 -265 l59 0 5 42
c4 24 9 79 13 122 8 94 19 82 28 -29 12 -141 9 -135 77 -135 49 0 59 3 59 18
0 9 11 114 25 232 33 290 35 270 -19 270 -51 0 -51 2 -62 -170 -4 -57 -10
-116 -15 -130 l-7 -25 -2 25 c-1 14 -7 86 -13 160 l-12 135 -46 3 -46 3 -13
-155 c-7 -86 -16 -153 -20 -151 -4 2 -13 72 -20 155 l-12 150 -49 0 c-47 0
-48 -1 -44 -27z"/>
<path d="M1330 490 l0 -260 105 0 105 0 0 44 0 45 -52 3 -53 3 -3 63 -3 62 51
0 50 0 0 44 0 45 -47 3 -48 3 -3 53 -3 52 55 0 56 0 0 50 0 50 -105 0 -105 0
0 -260z"/>
<path d="M1590 491 l0 -261 86 0 c47 0 94 5 105 10 62 34 77 226 19 262 -18
11 -18 13 7 42 22 27 25 37 21 93 -6 94 -23 107 -143 111 l-95 4 0 -261z m138
122 c-3 -51 -6 -58 -25 -61 -22 -3 -23 0 -23 57 0 59 1 61 25 61 25 0 26 -2
23 -57z m10 -213 c2 -52 0 -67 -14 -77 -37 -27 -44 -17 -44 68 l0 80 28 -3
c26 -3 27 -5 30 -68z"/>
<path d="M2013 703 c3 -27 16 -144 29 -260 l22 -213 62 0 62 0 6 88 c4 48 10
103 13 122 l7 35 7 -34 c4 -19 10 -74 14 -123 l7 -89 62 3 61 3 27 245 c15
135 27 251 27 258 1 8 -15 12 -47 12 l-49 0 -12 -157 c-7 -87 -14 -160 -16
-162 -5 -5 -13 52 -20 139 -3 41 -8 99 -11 128 l-6 52 -43 0 -43 0 -6 -52 c-3
-29 -8 -87 -11 -128 -7 -89 -15 -144 -20 -138 -2 2 -9 64 -15 138 -15 190 -12
180 -66 180 l-47 0 6 -47z"/>
<path d="M2511 737 c-46 -27 -50 -50 -51 -245 0 -199 6 -226 54 -252 39 -20
112 -17 144 7 42 31 51 73 51 238 1 161 -7 211 -39 240 -27 24 -125 31 -159
12z m97 -243 c2 -135 0 -163 -13 -174 -12 -10 -18 -10 -30 0 -12 10 -15 41
-15 160 0 82 3 156 6 165 4 9 15 15 28 13 20 -3 21 -9 24 -164z"/>
<path d="M2760 490 l0 -260 50 0 50 0 0 120 c0 101 2 120 15 120 24 0 35 -44
35 -146 l0 -94 45 0 45 0 0 119 c0 112 -2 121 -22 135 l-21 15 23 19 c48 39
34 192 -20 219 -14 7 -62 13 -112 13 l-88 0 0 -260z m145 115 c0 -44 -3 -50
-22 -53 -22 -3 -23 0 -23 53 0 53 1 56 23 53 19 -3 22 -9 22 -53z"/>
<path d="M3050 490 l0 -260 50 0 50 0 1 128 c1 125 1 126 14 77 7 -27 21 -85
30 -127 l17 -78 49 0 c27 0 49 3 49 8 0 4 -16 67 -34 140 l-34 132 29 113 c16
61 29 115 29 120 0 4 -22 7 -48 7 l-49 0 -24 -102 -24 -103 -3 103 -3 102 -49
0 -50 0 0 -260z"/>
<path d="M3370 723 c-20 -18 -33 -41 -37 -65 -11 -70 3 -103 78 -183 66 -72
70 -78 67 -118 -2 -34 -7 -42 -23 -42 -16 0 -21 10 -28 53 l-9 52 -44 0 -44 0
0 -51 c0 -96 39 -141 123 -143 59 -1 93 19 111 66 37 90 15 162 -80 260 -69
71 -80 103 -34 103 19 0 26 -6 28 -25 3 -23 6 -25 52 -22 48 4 50 5 44 30 -18
85 -50 112 -128 112 -36 0 -52 -6 -76 -27z"/>
</g>
</svg>
